<?xml version="1.0" encoding="UTF-8" standalone="no"?>
<svg width="130px" height="29px" viewBox="0 0 130 29" version="1.1" xmlns="http://www.w3.org/2000/svg" xmlns:xlink="http://www.w3.org/1999/xlink">
    <!-- Generator: Sketch 39.1 (31720) - http://www.bohemiancoding.com/sketch -->
    <title>LOGO</title>
    <desc>Created with Sketch.</desc>
    <defs></defs>
    <g id="Page-1" stroke="none" stroke-width="1" fill="none" fill-rule="evenodd">
        <g id="IMPORTING---1920X1080" transform="translate(-51.000000, -18.000000)" fill="#FFFFFF">
            <g id="app-bar" transform="translate(-1.000000, 0.000000)">
                <g id="LOGO" transform="translate(52.000000, 18.000000)">
                    <g id="Group">
                        <path d="M24.4875027,19.3402073 C24.311007,19.3402073 24.2227591,19.2486708 24.2227591,19.0655681 L24.2227591,2.06947558 L23.6637968,2.06947558 L14.0738415,19.2791929 C14.0343435,19.3201874 13.965815,19.3402073 13.8679595,19.3402073 L12.6030144,19.3402073 C12.5634867,19.3402073 12.5244335,19.3302123 12.4853506,19.3096852 L2.98364313,2.06947558 L2.45415604,2.06947558 L2.45415604,19.0655979 C2.45415604,19.2486708 2.36590819,19.3402371 2.18938285,19.3402371 L0.277257183,19.3402371 C0.100761488,19.3402371 0.0125136397,19.2487007 0.0125136397,19.0655979 L0.0125136397,0.330193567 C0.0125136397,0.127070968 0.100761488,0.0250621303 0.277257183,0.0250621303 L4.5133318,0.0250621303 C4.5721637,0.0250621303 4.62085421,0.0355643564 4.66041154,0.0555543889 L13.2795812,15.831151 L22.1635537,0.0860764833 C22.2026366,0.0455593726 22.2711058,0.0250621303 22.3694654,0.0250621303 L26.3701827,0.0250621303 C26.5071508,0.0250621303 26.5760944,0.127070968 26.5760944,0.330193567 L26.5760944,19.0655979 C26.5760944,19.2486708 26.5071508,19.3402371 26.3701827,19.3402371 L24.4875027,19.3402371 L24.4875027,19.3402073 Z" id="Shape"></path>
                        <path d="M40.089995,10.2831711 L40.089995,19.0656278 C40.089995,19.2488499 39.9987225,19.3402073 39.8166224,19.3402073 L37.7529393,19.3402073 C37.5907661,19.3402073 37.5101391,19.24882 37.5101391,19.0656278 L37.5101391,10.2831711 L28.0178911,0.524514585 C27.9771179,0.503987506 27.957191,0.473704099 27.957191,0.432679779 L27.957191,0.34129251 C27.957191,0.138020732 28.0581897,0.0363997607 28.2606616,0.0363997607 L30.8687473,0.0363997607 L30.9901474,0.0363997607 C31.030446,0.0363997607 31.0605737,0.0569268389 31.080975,0.0974737854 L38.7847809,8.02635609 L46.4890611,0.0974737854 C46.5293598,0.0569268389 46.6002605,0.0363997607 46.7012592,0.0363997607 L49.4001726,0.0363997607 C49.5618714,0.0363997607 49.6429728,0.138020732 49.6429728,0.34129251 L49.6429728,0.432679779 C49.6429728,0.473704099 49.6225714,0.504017342 49.5822727,0.524514585 L40.089995,10.2831711 L40.089995,10.2831711 Z" id="Shape"></path>
                        <path d="M70.6548269,18.2417401 C70.184142,18.6284129 69.5709737,18.9082734 68.8162411,19.0808739 C68.061034,19.253922 67.1638179,19.3402371 66.1245928,19.3402371 L57.0053223,19.3402371 C55.1616955,19.3402371 53.7299216,18.9030223 52.7104454,18.0281451 C51.5139695,17.0517066 50.9159836,15.6280582 50.9159836,13.7562155 C50.9159836,13.5731426 50.9941197,13.4816061 51.1513408,13.4816061 L53.0046049,13.4816061 C53.1811006,13.4816061 53.2693485,13.5731426 53.2693485,13.7562155 C53.2886527,14.3665082 53.3966792,14.8852346 53.5929536,15.3124246 C53.7887535,15.7396146 54.1123586,16.0652432 54.5637096,16.2888631 C54.8771733,16.4519161 55.2889966,16.5839995 55.7992091,16.685531 C56.3089471,16.7875696 56.9069331,16.8381116 57.5936709,16.8381116 L66.0363746,16.8381116 C66.7028593,16.8381116 67.2617624,16.7875696 67.713143,16.685531 C68.1640492,16.5839697 68.5367896,16.4414139 68.8309787,16.258341 C69.223053,16.0142239 69.4974635,15.6785704 69.6546253,15.2513804 C69.811372,14.8241904 69.8900122,14.3159364 69.8900122,13.7256934 C69.8900122,12.4851179 69.3503837,11.6407628 68.272046,11.1930458 C67.8404441,10.9899232 67.2718741,10.8473972 66.5658617,10.7658558 C65.8598196,10.6847917 65.036173,10.6437972 64.094833,10.6437972 L63.3888205,10.6437972 C63.1336846,10.6437972 62.8298582,10.6542995 62.4768668,10.6742895 L62.0061819,10.6742895 L61.4767245,10.6742895 C61.4371672,10.6742895 61.388447,10.6795406 61.3296151,10.6895356 C61.2707832,10.7000379 61.2018396,10.7048116 61.1237331,10.7048116 L60.7413258,10.7048116 C60.3294728,10.7253088 59.9663401,10.7353039 59.6528763,10.7353039 L58.888032,10.7353039 C56.3774756,10.7353039 54.5049073,10.4301724 53.2693485,9.81987971 C51.6022173,9.00649423 50.7689335,7.50082708 50.7689335,5.30386284 C50.7689335,1.78478171 52.6810295,0.0250024586 56.5052512,0.0250024586 L65.8010173,0.0250024586 C69.9975643,0.0250024586 72.0962677,1.88634301 72.0962677,5.60899427 C72.0962677,5.7720473 72.0273241,5.85311136 71.890356,5.85311136 L69.97826,5.85311136 C69.8210389,5.85311136 69.7429028,5.7720473 69.7429028,5.60899427 C69.7231538,5.01922864 69.6151273,4.50572349 69.4193273,4.06806113 C69.223053,3.63084629 68.8994775,3.30044388 68.4485714,3.07634666 C67.7816418,2.73069811 66.7814402,2.55762024 65.4480259,2.55762024 L56.4464193,2.55762024 C55.838292,2.55762024 55.3331501,2.60860974 54.9314386,2.71017104 C54.5292526,2.81220971 54.2107182,2.94426327 53.9753906,3.10683892 C53.4261248,3.47298471 53.1517143,4.21580835 53.1517143,5.3343551 C53.1517143,6.45334938 53.690898,7.23669013 54.7696508,7.68389998 C55.6714632,8.07057285 57.0541018,8.26367059 58.9174776,8.26367059 L59.8294017,8.26367059 C60.2412546,8.26367059 60.731214,8.25367558 61.3002585,8.23317833 C61.3590904,8.23317833 61.4225185,8.2284046 61.4914918,8.21790237 C61.559961,8.20790735 61.6335008,8.20265624 61.7120818,8.20265624 L62.0944891,8.20265624 C62.4474805,8.18263637 62.7610035,8.17216398 63.0358588,8.17216398 L63.6830097,8.17216398 C65.016424,8.17216398 66.1733426,8.25367558 67.1542399,8.41628107 C68.1346629,8.57933409 68.9583391,8.81294895 69.6252686,9.11808039 C71.3705062,10.0134548 72.2433771,11.5696639 72.2433771,13.7866779 C72.2433178,15.8416234 71.7138307,17.3263159 70.6548269,18.2417401 L70.6548269,18.2417401 Z" id="Shape"></path>
                        <path d="M92.9822737,19.3402073 L92.8057484,19.3402073 C92.8057484,19.3201874 92.7956663,19.2896653 92.7763324,19.2486708 L92.8057484,19.2791929 L90.5994928,14.7936683 L78.2149334,14.7936683 L76.0380642,19.2791929 L76.0380642,19.2486708 L76.0380642,19.3402073 L75.8910141,19.3402073 L73.8318087,19.3402073 C73.655313,19.3402073 73.5670652,19.2486708 73.5670652,19.0655681 L73.5670652,19.0350758 C73.5670652,18.9945587 73.5863397,18.9540118 73.6258674,18.9130173 L73.6258674,18.9740317 L82.8628017,0.0860466474 C82.9018845,0.0455295368 82.9607461,0.0250322945 83.039327,0.0250322945 L85.892763,0.0250322945 C85.9515949,0.0250322945 85.9856664,0.0302834075 85.9957485,0.0402784237 C86.0054155,0.0507806498 86.0201234,0.0660267791 86.0398724,0.0860466474 L95.3356683,18.9740317 L95.3356683,18.9130173 C95.3549428,18.9540118 95.3650842,18.9945289 95.3650842,19.0350758 L95.3650842,19.0655681 C95.3650842,19.248641 95.2865033,19.3402073 95.1296973,19.3402073 L92.9822737,19.3402073 L92.9822737,19.3402073 Z M79.4504033,12.3831091 L89.363934,12.3831091 L84.4512926,2.25254847 L79.4504033,12.3831091 L79.4504033,12.3831091 Z" id="Shape"></path>
                        <path d="M97.1465876,19.3402073 C96.9663556,19.3402073 96.8764769,19.24882 96.8764769,19.0656278 L96.8764769,0.34129251 C96.8764769,0.138020732 96.9663556,0.0363997607 97.1465876,0.0363997607 L99.0378968,0.0363997607 C99.217684,0.0363997607 99.3080075,0.138020732 99.3080075,0.34129251 L99.3080075,16.8339943 L112.548624,16.8339943 C112.728412,16.8339943 112.818735,16.9258291 112.818735,17.1090511 L112.818735,19.0651802 C112.818735,19.2488499 112.728382,19.3402371 112.548624,19.3402371 L97.1465876,19.3402371 L97.1465876,19.3402073 Z" id="Shape"></path>
                        <path d="M113.943124,19.3402073 C113.766629,19.3402073 113.678381,19.2486708 113.678381,19.0655681 L113.678381,0.330193567 C113.678381,0.127070968 113.766629,0.0250621303 113.943124,0.0250621303 L129.651834,0.0250621303 C129.808581,0.0250621303 129.887192,0.127070968 129.887192,0.330193567 L129.887192,2.25254847 C129.887192,2.45614844 129.808611,2.55770974 129.651834,2.55770974 L116.061162,2.55770974 L116.061162,8.14170156 L129.210565,8.14170156 C129.367312,8.14170156 129.445923,8.24374023 129.445923,8.44686283 L129.445923,10.3692177 C129.445923,10.5727879 129.367342,10.6743492 129.210565,10.6743492 L116.061162,10.6743492 L116.061162,16.8381116 L129.651834,16.8381116 C129.808581,16.8381116 129.887192,16.929648 129.887192,17.1127209 L129.887192,19.0655979 C129.887192,19.2486708 129.808611,19.3402371 129.651834,19.3402371 L113.943124,19.3402371 L113.943124,19.3402073 Z" id="Shape"></path>
                    </g>
                    <path d="M59.2202262,28.8140756 C59.2599322,28.8140756 59.279785,28.7885507 59.279785,28.7375 L59.279785,23.5133403 C59.279785,23.4566174 59.2599322,23.4282563 59.2202262,23.4282563 L58.0630833,23.4282563 C58.0347218,23.4282563 58.0148691,23.4339285 58.0035245,23.4452731 L55.4339867,27.8356092 L52.9410245,23.4367647 C52.9410245,23.4367647 52.9381884,23.4353467 52.9325161,23.4325105 C52.9268438,23.4296744 52.9154994,23.4282563 52.8984825,23.4282563 L51.6732724,23.4282563 C51.6222217,23.4282563 51.5966968,23.4566174 51.5966968,23.5133403 L51.5966968,28.7375 C51.5966968,28.7885507 51.6222217,28.8140756 51.6732724,28.8140756 L52.2263186,28.8140756 C52.2773693,28.8140756 52.3028942,28.7885507 52.3028942,28.7375 L52.3028942,23.9983193 L52.4560455,23.9983193 L55.2042598,28.8055672 C55.2042598,28.8055672 55.2070959,28.8069853 55.2127682,28.8098214 C55.2184405,28.8126576 55.2269488,28.8140756 55.2382934,28.8140756 L55.6041547,28.8140756 C55.6325162,28.8140756 55.652369,28.8084034 55.6637136,28.7970588 L58.4374531,23.9983193 L58.5991127,23.9983193 L58.5991127,28.7375 C58.5991127,28.7885507 58.6246377,28.8140756 58.6756883,28.8140756 L59.2202262,28.8140756 Z M67.1000433,28.8140756 C67.1454216,28.8140756 67.1681105,28.7885507 67.1681105,28.7375 L67.1681105,28.7289916 C67.1681105,28.717647 67.1652744,28.7063026 67.1596021,28.694958 L67.1596021,28.7119748 L64.4709466,23.4452731 C64.4652743,23.4396008 64.4610202,23.4353467 64.458184,23.4325105 C64.4553479,23.4296744 64.4454215,23.4282563 64.4284046,23.4282563 L63.6030895,23.4282563 C63.5804003,23.4282563 63.5633837,23.4339285 63.5520391,23.4452731 L60.8804004,28.7119748 L60.8804004,28.694958 C60.8690558,28.7063026 60.8633836,28.717647 60.8633836,28.7289916 L60.8633836,28.7375 C60.8633836,28.7885507 60.8889086,28.8140756 60.9399592,28.8140756 L61.5355475,28.8140756 L61.5780895,28.8140756 C61.5780895,28.8084033 61.5780895,28.799895 61.5780895,28.7885504 L61.5780895,28.7970588 L62.2077113,27.5463235 L65.7897491,27.5463235 L66.4278794,28.7970588 L66.419371,28.7885504 C66.4250433,28.799895 66.4278794,28.8084033 66.4278794,28.8140756 L66.4789298,28.8140756 L67.1000433,28.8140756 Z M64.0114928,24.0493697 L65.4323962,26.8741597 L62.5650643,26.8741597 L64.0114928,24.0493697 Z M74.571457,28.8140756 C74.6111631,28.8140756 74.6310158,28.7885507 74.6310158,28.7375 L74.6310158,27.2059874 C74.6310158,27.0471631 74.6210895,26.8968494 74.6012364,26.755042 C74.5813834,26.6132346 74.5459321,26.4884459 74.4948814,26.3806723 C74.3757631,26.1367635 74.2141051,25.9694332 74.0099024,25.8786765 C74.1403652,25.793592 74.2367928,25.6645492 74.2991881,25.4915441 C74.3615834,25.3185391 74.3927805,25.1100853 74.3927805,24.8661765 C74.3927805,23.9075582 73.7886899,23.4282563 72.5804906,23.4282563 L68.8027595,23.4282563 C68.7517089,23.4282563 68.7261839,23.4566174 68.7261839,23.5133403 L68.7261839,28.7375 C68.7261839,28.7885507 68.7517089,28.8140756 68.8027595,28.8140756 L69.3472973,28.8140756 C69.398348,28.8140756 69.423873,28.7885507 69.423873,28.7375 L69.423873,26.3976891 L72.8782847,26.3976891 C73.0995043,26.3976891 73.2852693,26.4189599 73.4355852,26.4615021 C73.585901,26.5040443 73.7035994,26.5735289 73.7886839,26.669958 C73.8454069,26.7493701 73.8907846,26.852888 73.9248184,26.9805147 C73.9588521,27.1081414 73.9758688,27.2655453 73.9758688,27.4527311 C73.9758688,27.5094541 73.9730327,27.588865 73.9673604,27.6909664 C73.9616881,27.7930677 73.9531798,27.9178564 73.9418352,28.0653361 C73.9248183,28.3659679 73.9163099,28.5900203 73.9163099,28.7375 C73.9163099,28.7885507 73.9418349,28.8140756 73.9928856,28.8140756 L74.571457,28.8140756 Z M73.7035999,24.9002101 C73.7035999,25.4050445 73.3661032,25.657458 72.6910999,25.657458 L69.423873,25.657458 L69.423873,24.1684874 L72.7251335,24.1684874 C73.3774477,24.1684874 73.7035999,24.4123925 73.7035999,24.9002101 L73.7035999,24.9002101 Z M82.1024296,23.5558824 C82.1024296,23.5558824 82.1038476,23.5516282 82.1066838,23.5431197 C82.1095199,23.5346113 82.110938,23.5246849 82.110938,23.5133403 C82.110938,23.4566174 82.0825769,23.4282563 82.0258539,23.4282563 L81.1665052,23.4282563 L77.8567363,25.5978992 L77.09098,25.5978992 L77.09098,23.5133403 C77.09098,23.4566174 77.065455,23.4282563 77.0144044,23.4282563 L76.4783749,23.4282563 C76.4273243,23.4282563 76.4017993,23.4566174 76.4017993,23.5133403 L76.4017993,28.7375 C76.4017993,28.7885507 76.4273243,28.8140756 76.4783749,28.8140756 L77.0144044,28.8140756 C77.065455,28.8140756 77.09098,28.7885507 77.09098,28.7375 L77.09098,26.2445378 L77.8737531,26.2445378 L81.098438,28.8140756 L81.9918203,28.8140756 C82.042871,28.8140756 82.068396,28.7885507 82.068396,28.7375 C82.068396,28.7204831 82.0712321,28.7119748 82.0769044,28.7119748 L78.5203918,25.9042017 L82.1024296,23.5558824 Z M88.4081921,28.8140756 C88.4535704,28.8140756 88.4762593,28.7885507 88.4762593,28.7375 L88.4762593,28.1929622 C88.4762593,28.1419115 88.4535704,28.1163866 88.4081921,28.1163866 L84.4773097,28.1163866 L84.4773097,26.3976891 L88.280566,26.3976891 C88.3259444,26.3976891 88.3486332,26.369328 88.3486332,26.312605 L88.3486332,25.7765756 C88.3486332,25.7198527 88.3259444,25.6914916 88.280566,25.6914916 L84.4773097,25.6914916 L84.4773097,24.1344538 L88.4081921,24.1344538 C88.4535704,24.1344538 88.4762593,24.1060927 88.4762593,24.0493697 L88.4762593,23.5133403 C88.4762593,23.4566174 88.4535704,23.4282563 88.4081921,23.4282563 L83.8647047,23.4282563 C83.813654,23.4282563 83.788129,23.4566174 83.788129,23.5133403 L83.788129,28.7375 C83.788129,28.7885507 83.813654,28.8140756 83.8647047,28.8140756 L88.4081921,28.8140756 Z M95.3180512,24.1344538 C95.3747741,24.1344538 95.4031352,24.1060927 95.4031352,24.0493697 L95.4031352,23.5133403 C95.4031352,23.4566174 95.3747741,23.4282563 95.3180512,23.4282563 L89.7790806,23.4282563 C89.7223576,23.4282563 89.6939965,23.4566174 89.6939965,23.5133403 L89.6939965,24.0493697 C89.6939965,24.1060927 89.7223576,24.1344538 89.7790806,24.1344538 L92.2039755,24.1344538 L92.2039755,28.7375 C92.2039755,28.7885507 92.2266644,28.8140756 92.2720428,28.8140756 L92.8080722,28.8140756 C92.8591229,28.8140756 92.8846478,28.7885507 92.8846478,28.7375 L92.8846478,24.1344538 L95.3180512,24.1344538 Z M102.321503,25.1554622 C102.321503,24.8378135 102.284633,24.5669654 102.210893,24.3429097 C102.137154,24.1188539 102.035054,23.9415973 101.904591,23.8111345 C101.768456,23.6806716 101.584109,23.584244 101.351545,23.5218487 C101.118981,23.4594535 100.843878,23.4282563 100.52623,23.4282563 L96.9612086,23.4282563 C96.9101579,23.4282563 96.884633,23.4566174 96.884633,23.5133403 L96.884633,28.7375 C96.884633,28.7885507 96.9101579,28.8140756 96.9612086,28.8140756 L97.5312716,28.8140756 C97.5879946,28.8140756 97.6163557,28.7885507 97.6163557,28.7375 L97.6163557,26.5678571 L100.52623,26.5678571 C101.723084,26.5678571 102.321503,26.0970635 102.321503,25.1554622 L102.321503,25.1554622 Z M101.598288,25.129937 C101.598288,25.2774167 101.572763,25.4050415 101.521713,25.5128151 C101.470662,25.6205888 101.388415,25.7028359 101.274969,25.7595588 L101.274969,25.7510504 C101.110472,25.8247903 100.852387,25.8616597 100.500704,25.8616597 L97.6163557,25.8616597 L97.6163557,24.1344538 L100.500704,24.1344538 C100.682218,24.1344538 100.835368,24.1443802 100.960158,24.1642332 C101.084949,24.1840862 101.189885,24.2138653 101.274969,24.2535714 C101.388415,24.3102944 101.470662,24.3897054 101.521713,24.4918067 C101.572763,24.5939081 101.598288,24.7186967 101.598288,24.8661765 L101.598288,25.129937 Z M108.218862,28.8140756 C108.269913,28.8140756 108.295437,28.7885507 108.295437,28.7375 L108.295437,28.1929622 C108.295437,28.1419115 108.269913,28.1163866 108.218862,28.1163866 L104.466656,28.1163866 L104.466656,23.5133403 C104.466656,23.4566174 104.441131,23.4282563 104.39008,23.4282563 L103.854051,23.4282563 C103.803,23.4282563 103.777475,23.4566174 103.777475,23.5133403 L103.777475,28.7375 C103.777475,28.7885507 103.803,28.8140756 103.854051,28.8140756 L108.218862,28.8140756 Z M115.681767,28.8140756 C115.727146,28.8140756 115.749834,28.7885507 115.749834,28.7375 L115.749834,28.7289916 C115.749834,28.717647 115.746998,28.7063026 115.741326,28.694958 L115.741326,28.7119748 L113.052671,23.4452731 C113.046998,23.4396008 113.042744,23.4353467 113.039908,23.4325105 C113.037072,23.4296744 113.027145,23.4282563 113.010129,23.4282563 L112.184813,23.4282563 C112.162124,23.4282563 112.145108,23.4339285 112.133763,23.4452731 L109.462124,28.7119748 L109.462124,28.694958 C109.45078,28.7063026 109.445108,28.717647 109.445108,28.7289916 L109.445108,28.7375 C109.445108,28.7885507 109.470632,28.8140756 109.521683,28.8140756 L110.117271,28.8140756 L110.159813,28.8140756 L110.159813,28.7885504 L110.159813,28.7970588 L110.789435,27.5463235 L114.371473,27.5463235 L115.009603,28.7970588 L115.001095,28.7885504 C115.006767,28.799895 115.009603,28.8084033 115.009603,28.8140756 L115.060654,28.8140756 L115.681767,28.8140756 Z M112.593217,24.0493697 L114.01412,26.8741597 L111.146788,26.8741597 L112.593217,24.0493697 Z M123.391416,27.197479 C123.391416,27.1918067 123.38858,27.1889706 123.382908,27.1889706 L123.374399,27.1889706 L122.83837,27.1889706 C122.787319,27.1889706 122.761794,27.2144955 122.761794,27.2655462 L122.761794,27.2910714 C122.761794,27.6427539 122.645514,27.8724785 122.41295,27.9802521 C122.220092,28.0766812 121.922301,28.124895 121.519567,28.124895 L119.537109,28.124895 C118.839417,28.124895 118.391312,28.0114507 118.192782,27.7845588 C118.11337,27.6824575 118.052393,27.5108731 118.009851,27.2698004 C117.967309,27.0287278 117.946038,26.7210103 117.946038,26.3466387 C117.946038,26.0006285 117.948874,25.7155999 117.954546,25.4915441 C117.960219,25.2674884 117.974399,25.1072484 117.997088,25.0108193 C118.059484,24.6591369 118.198453,24.4180679 118.414,24.287605 C118.533118,24.2252098 118.696195,24.1741599 118.903233,24.1344538 C119.110272,24.0947477 119.369776,24.074895 119.681752,24.074895 L121.519567,24.074895 C122.342051,24.074895 122.753286,24.3556695 122.753286,24.9172269 L122.753286,24.9342437 C122.753286,24.9852944 122.778811,25.0108193 122.829862,25.0108193 L123.365891,25.0108193 C123.411269,25.0108193 123.433958,24.9852944 123.433958,24.9342437 L123.433958,24.9172269 C123.433958,24.4010478 123.273718,24.0153374 122.953233,23.760084 C122.632749,23.5048307 122.154865,23.3772059 121.519567,23.3772059 L119.732803,23.3772059 C118.779857,23.3772059 118.130389,23.5473722 117.784378,23.8877101 L117.792887,23.8877101 C117.441204,24.2337202 117.265366,24.8888607 117.265366,25.8531513 C117.265366,26.6813067 117.290891,27.2343473 117.341941,27.5122899 C117.38732,27.7448541 117.462477,27.9419635 117.567414,28.1036239 C117.672352,28.2652844 117.804231,28.3999995 117.963055,28.5077731 C118.138896,28.6155468 118.36153,28.6935397 118.630965,28.7417542 C118.900399,28.7899687 119.222297,28.8140756 119.596668,28.8140756 L121.528076,28.8140756 C122.140684,28.8140756 122.597297,28.7148119 122.897929,28.5162815 C123.260956,28.2553558 123.442467,27.8384482 123.442467,27.2655462 C123.442467,27.2485293 123.439631,27.2371849 123.433958,27.2315126 L123.391416,27.197479 Z M129.79928,28.8140756 C129.844658,28.8140756 129.867347,28.7885507 129.867347,28.7375 L129.867347,28.1929622 C129.867347,28.1419115 129.844658,28.1163866 129.79928,28.1163866 L125.868397,28.1163866 L125.868397,26.3976891 L129.671653,26.3976891 C129.717032,26.3976891 129.739721,26.369328 129.739721,26.312605 L129.739721,25.7765756 C129.739721,25.7198527 129.717032,25.6914916 129.671653,25.6914916 L125.868397,25.6914916 L125.868397,24.1344538 L129.79928,24.1344538 C129.844658,24.1344538 129.867347,24.1060927 129.867347,24.0493697 L129.867347,23.5133403 C129.867347,23.4566174 129.844658,23.4282563 129.79928,23.4282563 L125.255792,23.4282563 C125.204741,23.4282563 125.179217,23.4566174 125.179217,23.5133403 L125.179217,28.7375 C125.179217,28.7885507 125.204741,28.8140756 125.255792,28.8140756 L129.79928,28.8140756 Z" id="MARKETPLACE"></path>
                </g>
            </g>
        </g>
    </g>
</svg>